[b][color=\"#C0C0C0\"][size=\"7\"]The Golden Compass 2007[/size][/color]
[color=\"#800080\"][size=\"5\"]720p BDrip Hindi [/size][/color]
[size=\"5\"][size=\"4\"][color=\"#C0C0C0\"][Arihant-TDT][/color][/size][/b][/size]


[color=\"#FF0000\"][size=\"5\"]Exclusive TDT Release[/size][/color]
[img]http://img33.imageshack.us/img33/2056/gcg.jpg[/img]

[code] 
http://www.imdb.com/title/tt0385752/
[/code]

[img]http://img705.imageshack.us/img705/954/infomm.png[/img]

[code]
General
Complete name                    : G:\\Movies\\Hollywood\\The Golden Compass 2007 720p BDrip Hindi by Arihant !!!Team TDT!!!\\The Golden Compass 2007 720p BDrip Hindi by Arihant !!!Team TDT!!!.mp4
Format                           : MPEG-4
Format profile                   : Base Media
Codec ID                         : isom
File size                        : 1.90 GiB
Duration                         : 1h 53mn
Overall bit rate mode            : Variable
Overall bit rate                 : 2 395 Kbps
Encoded date                     : UTC 2011-11-27 10:48:02
Tagged date                      : UTC 2011-11-27 10:48:02

Video
ID                               : 1
Format                           : AVC
Format/Info                      : Advanced Video Codec
Format profile                   : High@L4.1
Format settings, CABAC           : Yes
Format settings, ReFrames        : 6 frames
Codec ID                         : avc1
Codec ID/Info                    : Advanced Video Coding
Duration                         : 1h 53mn
Bit rate mode                    : Variable
Bit rate                         : 2 203 Kbps
Maximum bit rate                 : 40.0 Mbps
Width                            : 1 280 pixels
Height                           : 544 pixels
Display aspect ratio             : 2.35:1
Frame rate mode                  : Constant
Frame rate                       : 23.976 fps
Color space                      : YUV
Chroma subsampling               : 4:2:0
Bit depth                        : 8 bits
Scan type                        : Progressive
Bits/(Pixel*Frame)               : 0.132
Stream size                      : 1.74 GiB (92%)
Title                            : Arihant
Writing library                  : x264 core 80 r1373M 4322f63
Encoding settings                : cabac=1 / ref=6 / deblock=1:-1:-1 / analyse=0x3:0x113 / me=umh / subme=9 / psy=1 / psy_rd=1.0:1.0 / mixed_ref=1 / me_range=16 / chroma_me=1 / trellis=2 / 8x8dct=1 / cqm=0 / deadzone=21,11 / fast_pskip=1 / chroma_qp_offset=-4 / threads=1 / sliced_threads=0 / slices=3 / nr=0 / decimate=1 / mbaff=0 / constrained_intra=0 / bframes=3 / b_pyramid=0 / b_adapt=2 / b_bias=0 / direct=1 / wpredb=1 / wpredp=2 / keyint=300 / keyint_min=1 / scenecut=54 / rc_lookahead=60 / rc=2pass / mbtree=1 / bitrate=2203 / ratetol=1.0 / qcomp=0.60 / qpmin=10 / qpmax=51 / qpstep=4 / cplxblur=20.0 / qblur=0.5 / vbv_maxrate=40000 / vbv_bufsize=30000 / ip_ratio=1.40 / aq=1:1.00
Encoded date                     : UTC 2009-12-13 06:43:35
Tagged date                      : UTC 2011-11-27 10:49:02

Audio
ID                               : 2
Format                           : AC-3
Format/Info                      : Audio Coding 3
Mode extension                   : CM (complete main)
Codec ID                         : ac-3
Duration                         : 1h 53mn
Bit rate mode                    : Constant
Bit rate                         : 192 Kbps
Channel(s)                       : 2 channels
Channel positions                : Front: L R
Sampling rate                    : 48.0 KHz
Bit depth                        : 16 bits
Compression mode                 : Lossy
Stream size                      : 155 MiB (8%)
Title                            : Arihant
Language                         : Hindi
Encoded date                     : UTC 2011-11-27 10:48:48
Tagged date                      : UTC 2011-11-27 10:49:02
[/code]

[color=\"#4169E1\"][size=\"3\"][u][b]English Audio kept separately in the folder [/b][/u][/size][/color]
 
http://img834.imageshack.us/img834/2090/screensmu.png
 
http://i801.photobucket.com/albums/yy300/arihant_arijain/snapshot20111127155633.jpg 
http://i801.photobucket.com/albums/yy300/arihant_arijain/snapshot20111127155643.jpg 
http://i801.photobucket.com/albums/yy300/arihant_arijain/snapshot20111127155648.jpg 
http://i801.photobucket.com/albums/yy300/arihant_arijain/snapshot20111127155702.jpg 
http://i801.photobucket.com/albums/yy300/arihant_arijain/snapshot20111127155714.jpg 
http://i801.photobucket.com/albums/yy300/arihant_arijain/snapshot20111127155736.jpg 
http://i801.photobucket.com/albums/yy300/arihant_arijain/snapshot20111127155754.jpg 
http://i801.photobucket.com/albums/yy300/arihant_arijain/snapshot20111127155804.jpg 
http://i801.photobucket.com/albums/yy300/arihant_arijain/snapshot20111127155814.jpg

[color=\"#00BFFF\"][size=\"5\"]Give Credit to Arihant @ TDT
Wherever you do share[/size][/color]

[color=\"#FF0000\"][size=\"5\"][font=\"Verdana\"][b]Torrent..Reattached.[/b][/font][/size][/color]